<?xml version="1.0" encoding="UTF-8" standalone="no"?>
<svg
   xmlns:dc="http://purl.org/dc/elements/1.1/"
   xmlns:cc="http://creativecommons.org/ns#"
   xmlns:rdf="http://www.w3.org/1999/02/22-rdf-syntax-ns#"
   xmlns:svg="http://www.w3.org/2000/svg"
   xmlns="http://www.w3.org/2000/svg"
   xmlns:sodipodi="http://sodipodi.sourceforge.net/DTD/sodipodi-0.dtd"
   xmlns:inkscape="http://www.inkscape.org/namespaces/inkscape"
   width="600px"
   height="600px"
   viewBox="0 0 600 600"
   version="1.1"
   id="SVGRoot"
   sodipodi:docname="linkbook-logo.svg"
   inkscape:version="1.0.1 (3bc2e813f5, 2020-09-07)"
   inkscape:export-filename="/home/swimmingkiim/Pictures/icon/linkbook-logo.png"
   inkscape:export-xdpi="96"
   inkscape:export-ydpi="96">
  <defs
     id="defs833" />
  <sodipodi:namedview
     id="base"
     pagecolor="#ffffff"
     bordercolor="#666666"
     borderopacity="1.0"
     inkscape:pageopacity="1.0"
     inkscape:pageshadow="0"
     inkscape:zoom="1.1193708"
     inkscape:cx="269.89457"
     inkscape:cy="318.07658"
     inkscape:document-units="px"
     inkscape:current-layer="layer1"
     inkscape:document-rotation="0"
     showgrid="false"
     inkscape:window-width="1920"
     inkscape:window-height="1024"
     inkscape:window-x="0"
     inkscape:window-y="30"
     inkscape:window-maximized="1" />
  <metadata
     id="metadata836">
    <rdf:RDF>
      <cc:Work
         rdf:about="">
        <dc:format>image/svg+xml</dc:format>
        <dc:type
           rdf:resource="http://purl.org/dc/dcmitype/StillImage" />
        <dc:title />
      </cc:Work>
    </rdf:RDF>
  </metadata>
  <g
     inkscape:label="Layer 1"
     inkscape:groupmode="layer"
     id="layer1">
    <path
       id="path838"
       style="color:#000000;font-style:normal;font-variant:normal;font-weight:normal;font-stretch:normal;font-size:medium;line-height:normal;font-family:sans-serif;font-variant-ligatures:normal;font-variant-position:normal;font-variant-caps:normal;font-variant-numeric:normal;font-variant-alternates:normal;font-variant-east-asian:normal;font-feature-settings:normal;font-variation-settings:normal;text-indent:0;text-align:start;text-decoration:none;text-decoration-line:none;text-decoration-style:solid;text-decoration-color:#000000;letter-spacing:normal;word-spacing:normal;text-transform:none;writing-mode:lr-tb;direction:ltr;text-orientation:mixed;dominant-baseline:auto;baseline-shift:baseline;text-anchor:start;white-space:normal;shape-padding:0;shape-margin:0;inline-size:0;clip-rule:nonzero;display:inline;overflow:visible;visibility:visible;isolation:auto;mix-blend-mode:normal;color-interpolation:sRGB;color-interpolation-filters:linearRGB;solid-color:#000000;solid-opacity:1;vector-effect:none;fill:#d4451f;fill-opacity:1;fill-rule:nonzero;stroke:none;stroke-width:35.5613;stroke-linecap:square;stroke-linejoin:miter;stroke-miterlimit:4;stroke-dasharray:none;stroke-dashoffset:0;stroke-opacity:1;paint-order:fill markers stroke;color-rendering:auto;image-rendering:auto;shape-rendering:auto;text-rendering:auto;enable-background:accumulate;stop-color:#000000"
       d="M 81.888672 85.376953 L 81.888672 260.2832 L 243.30859 260.2832 L 243.30859 224.72266 L 117.45117 224.72266 L 117.45117 120.9375 L 307.35547 120.9375 L 307.35547 222.8418 L 307.35547 224.72266 L 307.35547 260.2832 L 342.91797 260.2832 L 342.91797 242.50391 L 342.91797 85.376953 L 81.888672 85.376953 z M 257.08203 177.81641 L 257.08203 195.5957 L 257.08203 352.72266 L 518.11133 352.72266 L 518.11133 177.81641 L 356.69141 177.81641 L 356.69141 213.37695 L 482.54883 213.37695 L 482.54883 317.16211 L 292.64453 317.16211 L 292.64453 215.25781 L 292.64453 213.37695 L 292.64453 177.81641 L 257.08203 177.81641 z M 91.414062 433.23828 L 91.414062 498.61328 L 138.35742 498.61328 L 138.35742 487.57422 L 102.93359 487.57422 L 102.93359 433.23828 L 91.414062 433.23828 z M 154.99023 433.23828 L 154.99023 444.46875 L 166.31836 444.46875 L 166.31836 433.23828 L 154.99023 433.23828 z M 242.34961 433.23828 L 242.34961 498.61328 L 253.67773 498.61328 L 253.67773 479.99023 L 270.18945 498.61328 L 282.86133 498.61328 L 259.05273 472.30859 L 282.57227 449.75 L 269.22852 449.75 L 253.67773 465.20508 L 253.67773 433.23828 L 242.34961 433.23828 z M 296.62305 433.23828 L 296.62305 498.61328 L 326.38281 498.61328 C 328.68681 498.61328 330.76705 498.22894 332.62305 497.46094 C 334.54305 496.69294 336.17553 495.57356 337.51953 494.10156 C 338.92753 492.62956 340.0152 490.80491 340.7832 488.62891 C 341.5512 486.45291 341.93555 484.02198 341.93555 481.33398 L 341.93555 477.30078 C 341.93555 475.12478 341.5195 473.0465 340.6875 471.0625 C 339.8555 469.0145 338.48055 467.28495 336.56055 465.87695 C 337.96855 464.40495 339.08792 462.67736 339.91992 460.69336 C 340.75192 458.70936 341.16797 456.66083 341.16797 454.54883 L 341.16797 449.26953 C 341.16797 446.90153 340.78363 444.72619 340.01562 442.74219 C 339.24763 440.75819 338.15995 439.0623 336.75195 437.6543 C 335.40795 436.2463 333.77547 435.15667 331.85547 434.38867 C 329.93547 433.62067 327.82353 433.23828 325.51953 433.23828 L 296.62305 433.23828 z M 468.07422 433.23828 L 468.07422 498.61328 L 479.40234 498.61328 L 479.40234 479.99023 L 495.91406 498.61328 L 508.58594 498.61328 L 484.77734 472.30859 L 508.29688 449.75 L 494.95312 449.75 L 479.40234 465.20508 L 479.40234 433.23828 L 468.07422 433.23828 z M 307.95117 445.14062 L 323.50391 445.14062 C 324.33591 445.14062 325.1363 445.3328 325.9043 445.7168 C 326.6723 446.1008 327.34392 446.64561 327.91992 447.34961 C 328.55992 447.98961 329.03938 448.72464 329.35938 449.55664 C 329.67937 450.38864 329.83984 451.3178 329.83984 452.3418 L 329.83984 453.30078 C 329.83984 454.26078 329.67936 455.18994 329.35938 456.08594 C 329.03938 456.91794 328.55992 457.65297 327.91992 458.29297 C 327.34392 458.93297 326.6723 459.44608 325.9043 459.83008 C 325.1363 460.21408 324.33591 460.40625 323.50391 460.40625 L 307.95117 460.40625 L 307.95117 445.14062 z M 154.99023 449.75 L 154.99023 498.61328 L 166.31836 498.61328 L 166.31836 449.75 L 154.99023 449.75 z M 184.9043 449.75 L 184.9043 498.61328 L 196.13672 498.61328 L 196.13672 468.75781 C 196.13672 467.60581 196.23182 466.54984 196.42383 465.58984 C 196.67983 464.56584 197.09587 463.70205 197.67188 462.99805 C 198.24787 462.29405 199.04827 461.74923 200.07227 461.36523 C 201.16027 460.91723 202.53717 460.69336 204.20117 460.69336 L 206.50391 460.69336 C 208.23191 460.69336 209.60881 460.91723 210.63281 461.36523 C 211.65681 461.74923 212.42355 462.29405 212.93555 462.99805 C 213.51155 463.70205 213.89589 464.56584 214.08789 465.58984 C 214.27989 466.54984 214.37695 467.60581 214.37695 468.75781 L 214.37695 498.61328 L 225.60742 498.61328 L 225.60742 466.45312 C 225.60742 464.40513 225.22503 462.39025 224.45703 460.40625 C 223.75303 458.35825 222.66341 456.5653 221.19141 455.0293 C 219.78341 453.4293 217.99241 452.14945 215.81641 451.18945 C 213.64041 450.22945 211.14414 449.75 208.32812 449.75 L 203.33594 449.75 C 200.77594 449.75 198.37672 450.16605 196.13672 450.99805 L 196.13672 449.75 L 184.9043 449.75 z M 373.97852 449.75 C 371.22652 449.75 368.73023 450.19775 366.49023 451.09375 C 364.25023 451.92575 362.33047 453.11048 360.73047 454.64648 C 359.19447 456.18248 358.00973 458.03689 357.17773 460.21289 C 356.40973 462.38889 356.02539 464.85347 356.02539 467.60547 L 356.02539 480.75781 C 356.02539 483.44581 356.40973 485.91039 357.17773 488.15039 C 358.00973 490.32639 359.19447 492.21445 360.73047 493.81445 C 362.33047 495.35045 364.25023 496.53323 366.49023 497.36523 C 368.73023 498.19723 371.22652 498.61328 373.97852 498.61328 L 377.91406 498.61328 C 380.73006 498.61328 383.22634 498.19723 385.40234 497.36523 C 387.64234 496.53323 389.53041 495.35045 391.06641 493.81445 C 392.66641 492.21445 393.88089 490.32639 394.71289 488.15039 C 395.54489 485.91039 395.96094 483.44581 395.96094 480.75781 L 395.96094 467.60547 C 395.96094 464.85347 395.54489 462.38889 394.71289 460.21289 C 393.88089 458.03689 392.66641 456.18248 391.06641 454.64648 C 389.53041 453.11048 387.64234 451.92575 385.40234 451.09375 C 383.22634 450.19775 380.73006 449.75 377.91406 449.75 L 373.97852 449.75 z M 429.37695 449.75 C 426.62495 449.75 424.13063 450.19775 421.89062 451.09375 C 419.65064 451.92575 417.72891 453.11048 416.12891 454.64648 C 414.59291 456.18248 413.41013 458.03689 412.57812 460.21289 C 411.81013 462.38889 411.42578 464.85347 411.42578 467.60547 L 411.42578 480.75781 C 411.42578 483.44581 411.81014 485.91039 412.57812 488.15039 C 413.41012 490.32639 414.59291 492.21445 416.12891 493.81445 C 417.72891 495.35045 419.65063 496.53323 421.89062 497.36523 C 424.13063 498.19723 426.62495 498.61328 429.37695 498.61328 L 433.31445 498.61328 C 436.13045 498.61328 438.62478 498.19723 440.80078 497.36523 C 443.04078 496.53323 444.92884 495.35045 446.46484 493.81445 C 448.06484 492.21445 449.28128 490.32639 450.11328 488.15039 C 450.94528 485.91039 451.36133 483.44581 451.36133 480.75781 L 451.36133 467.60547 C 451.36133 464.85347 450.94528 462.38889 450.11328 460.21289 C 449.28128 458.03689 448.06484 456.18248 446.46484 454.64648 C 444.92884 453.11048 443.04078 451.92575 440.80078 451.09375 C 438.62478 450.19775 436.13045 449.75 433.31445 449.75 L 429.37695 449.75 z M 373.97852 460.78906 L 377.91406 460.78906 C 379.96206 460.78906 381.62625 461.46069 382.90625 462.80469 C 384.25025 464.08469 384.92187 465.78058 384.92188 467.89258 L 384.92188 480.37305 C 384.92188 482.48505 384.25025 484.21264 382.90625 485.55664 C 381.62625 486.90064 379.96206 487.57422 377.91406 487.57422 L 373.97852 487.57422 C 371.99452 487.57422 370.29863 486.90064 368.89062 485.55664 C 367.54663 484.21264 366.87305 482.48505 366.87305 480.37305 L 366.87305 467.89258 C 366.87305 465.78058 367.54663 464.08469 368.89062 462.80469 C 370.29863 461.46069 371.99452 460.78906 373.97852 460.78906 z M 429.37695 460.78906 L 433.31445 460.78906 C 435.36245 460.78906 437.02664 461.46069 438.30664 462.80469 C 439.65064 464.08469 440.32227 465.78058 440.32227 467.89258 L 440.32227 480.37305 C 440.32227 482.48505 439.65064 484.21264 438.30664 485.55664 C 437.02664 486.90064 435.36245 487.57422 433.31445 487.57422 L 429.37695 487.57422 C 427.39295 487.57422 425.69706 486.90064 424.28906 485.55664 C 422.94506 484.21264 422.27344 482.48505 422.27344 480.37305 L 422.27344 467.89258 C 422.27344 465.78058 422.94506 464.08469 424.28906 462.80469 C 425.69706 461.46069 427.39295 460.78906 429.37695 460.78906 z M 307.95117 471.54102 L 324.27148 471.54102 C 325.10348 471.54102 325.90386 471.73319 326.67188 472.11719 C 327.50387 472.50119 328.2072 473.0143 328.7832 473.6543 C 329.3592 474.2943 329.80695 475.06103 330.12695 475.95703 C 330.51095 476.78903 330.70312 477.68648 330.70312 478.64648 L 330.70312 479.31836 C 330.70312 480.34236 330.51095 481.30127 330.12695 482.19727 C 329.80695 483.02927 329.3592 483.76625 328.7832 484.40625 C 328.2072 485.04625 327.50386 485.55741 326.67188 485.94141 C 325.90386 486.32541 325.10348 486.51758 324.27148 486.51758 L 307.95117 486.51758 L 307.95117 471.54102 z " />
  </g>
</svg>
